HIERARCHY
ROOT Hips
{
	OFFSET -0.001795 -0.223333 0.028219
	CHANNELS 6 Xposition Yposition Zposition Zrotation Yrotation Xrotation 
	JOINT LeftUpLeg
	{
		OFFSET 0.069520 -0.091406 -0.006815
		CHANNELS 3 Zrotation Yrotation Xrotation
		JOINT LeftLeg
		{
			OFFSET 0.034277 -0.375199 -0.004496
			CHANNELS 3 Zrotation Yrotation Xrotation
			JOINT LeftFoot
			{
				OFFSET -0.013596 -0.397961 -0.043693
				CHANNELS 3 Zrotation Yrotation Xrotation
				JOINT LeftToe
				{
					OFFSET 0.026358 -0.055791 0.119288
					CHANNELS 3 Zrotation Yrotation Xrotation
					End Site
					{
						OFFSET 0.000000 0.000000 0.000000
					}
				}
			}
		}
	}
	JOINT RightUpLeg
	{
		OFFSET -0.067670 -0.090522 -0.004320
		CHANNELS 3 Zrotation Yrotation Xrotation
		JOINT RightLeg
		{
			OFFSET -0.038290 -0.382569 -0.008850
			CHANNELS 3 Zrotation Yrotation Xrotation
			JOINT RightFoot
			{
				OFFSET 0.015774 -0.398415 -0.042312
				CHANNELS 3 Zrotation Yrotation Xrotation
				JOINT RightToe
				{
					OFFSET -0.025372 -0.048144 0.123348
					CHANNELS 3 Zrotation Yrotation Xrotation
					End Site
					{
						OFFSET 0.000000 0.000000 0.000000
					}
				}
			}
		}
	}
	JOINT Spine
	{
		OFFSET -0.002533 0.108963 -0.026696
		CHANNELS 3 Zrotation Yrotation Xrotation
		JOINT Spine1
		{
			OFFSET 0.005487 0.135180 0.001092
			CHANNELS 3 Zrotation Yrotation Xrotation
			JOINT Spine2
			{
				OFFSET 0.001457 0.052922 0.025425
				CHANNELS 3 Zrotation Yrotation Xrotation
				JOINT Neck
				{
					OFFSET -0.002778 0.213870 -0.042857
					CHANNELS 3 Zrotation Yrotation Xrotation
					JOINT Head
					{
						OFFSET 0.005152 0.064970 0.051349
						CHANNELS 3 Zrotation Yrotation Xrotation
						End Site
						{
							OFFSET 0.000000 0.000000 0.000000
						}
					}
				}
				JOINT LeftShoulder
				{
					OFFSET 0.078845 0.121749 -0.034090
					CHANNELS 3 Zrotation Yrotation Xrotation
					JOINT LeftArm
					{
						OFFSET 0.090977 0.030469 -0.008868
						CHANNELS 3 Zrotation Yrotation Xrotation
						JOINT LeftForeArm
						{
							OFFSET 0.259612 -0.012772 -0.027456
							CHANNELS 3 Zrotation Yrotation Xrotation
							JOINT LeftHand
							{
								OFFSET 0.249234 0.008986 -0.001171
								CHANNELS 3 Zrotation Yrotation Xrotation
								End Site
								{
									OFFSET 0.000000 0.000000 0.000000
								}
							}
						}
					}
				}
				JOINT RightShoulder
				{
					OFFSET -0.081759 0.118833 -0.038615
					CHANNELS 3 Zrotation Yrotation Xrotation
					JOINT RightArm
					{
						OFFSET -0.096012 0.032551 -0.009143
						CHANNELS 3 Zrotation Yrotation Xrotation
						JOINT RightForeArm
						{
							OFFSET -0.253742 -0.013329 -0.021401
							CHANNELS 3 Zrotation Yrotation Xrotation
							JOINT RightHand
							{
								OFFSET -0.255298 0.007772 -0.005559
								CHANNELS 3 Zrotation Yrotation Xrotation
								End Site
								{
									OFFSET 0.000000 0.000000 0.000000
								}
							}
						}
					}
				}
			}
		}
	}
}
MOTION
Frames: 18
Frame Time: 0.050000
-0.013822 0.940982 -0.027763 -0.878026 -2.264856 6.157841 10.305232 -0.231479 -4.192190 2.460529 -0.001166 -4.849502 1.797093 7.637210 13.641269 0.000000 0.000000 0.000000 -5.876841 0.757282 -10.029450 -5.038602 0.480743 -0.282597 1.714181 -2.581022 13.481681 0.000000 0.000000 0.000000 5.478417 -0.002882 -1.773478 -1.609541 0.773385 -3.764936 -4.765065 4.483149 -0.261290 8.052852 -4.207561 -10.304687 0.000000 0.000000 0.000000 -15.982733 -1.916921 -1.624834 -57.707619 -10.642685 -1.158954 5.758326 -13.641433 -0.295104 0.000000 0.000000 0.000000 11.675067 -6.068476 -3.371828 66.377600 3.923415 -3.197131 -2.765479 21.556475 0.394581 0.000000 0.000000 0.000000 
-0.013918 0.940976 -0.028921 -0.974719 -2.337887 6.240550 10.491065 -0.227316 -4.574668 2.180505 -0.007715 -4.387608 2.076830 7.980128 13.234922 0.000000 0.000000 0.000000 -5.829433 0.780952 -10.398817 -4.697982 0.457669 -0.144841 1.628322 -2.723626 13.406310 0.000000 0.000000 0.000000 5.604915 -0.014728 -1.675501 -1.706217 0.814077 -3.721401 -4.491780 4.284785 -0.097695 8.029063 -4.208575 -10.340219 0.000000 0.000000 0.000000 -15.615411 -2.664779 -1.140088 -57.966423 -11.679842 -0.671484 6.596863 -13.754306 -0.388411 0.000000 0.000000 0.000000 11.300451 -6.053376 -3.359058 66.710144 4.339400 -3.002641 -3.649220 23.021338 0.257448 0.000000 0.000000 0.000000 
-0.014056 0.940827 -0.030176 -0.998977 -2.580350 6.216863 10.489170 -0.218992 -4.880859 2.168290 -0.029348 -3.988234 2.099020 7.958242 13.109551 0.000000 0.000000 0.000000 -5.957076 0.797604 -10.764465 -4.503104 0.467519 0.239029 1.642640 -2.717009 13.360995 0.000000 0.000000 0.000000 5.616370 -0.034512 -1.443718 -1.720657 0.818040 -3.725815 -4.344819 4.236408 -0.083585 8.096406 -4.290853 -10.211911 0.000000 0.000000 0.000000 -15.302188 -3.119472 -0.835193 -58.095003 -12.488452 -0.275368 7.480538 -14.008053 -0.499167 0.000000 0.000000 0.000000 11.081183 -5.906276 -3.292061 66.775315 4.742423 -2.785585 -4.408645 24.361359 0.120085 0.000000 0.000000 0.000000 
-0.014223 0.940609 -0.031212 -1.095203 -2.323016 6.199320 10.813082 -0.214755 -5.531626 1.776253 -0.045486 -3.068126 2.116729 7.872192 12.450282 0.000000 0.000000 0.000000 -5.947414 0.816060 -11.198439 -4.320547 0.464125 0.413322 1.531831 -2.854651 13.287656 0.000000 0.000000 0.000000 5.560099 -0.052762 -1.244851 -1.696474 0.809789 -3.682840 -4.155614 3.991318 -0.021560 7.998574 -4.274582 -10.016186 0.000000 0.000000 0.000000 -14.605252 -3.801135 -0.388680 -58.642914 -13.528863 0.225135 8.385996 -14.515710 -0.629386 0.000000 0.000000 0.000000 10.779739 -6.008927 -3.321942 67.307448 4.642730 -2.873474 -5.396338 26.081737 -0.080487 0.000000 0.000000 0.000000 
-0.014513 0.940267 -0.032021 -1.108786 -2.396147 6.091207 10.987413 -0.203782 -5.614229 1.681809 -0.047608 -2.871357 2.008730 7.719754 12.583049 0.000000 0.000000 0.000000 -6.143197 0.814124 -11.369989 -3.962831 0.456003 0.802375 1.475181 -2.870940 13.032632 0.000000 0.000000 0.000000 5.546039 -0.074903 -0.974532 -1.691342 0.807032 -3.677962 -4.005130 3.965444 -0.112730 7.798723 -4.181621 -9.821321 0.000000 0.000000 0.000000 -14.265421 -3.903496 -0.283889 -58.854730 -14.221385 0.579244 8.858330 -15.609783 -0.744339 0.000000 0.000000 0.000000 10.408070 -5.845858 -3.216753 67.614082 4.090572 -3.202719 -5.479062 27.865926 -0.113691 0.000000 0.000000 0.000000 
-0.014874 0.939980 -0.032594 -1.131566 -2.256776 6.005082 11.258091 -0.195931 -5.831915 1.329893 -0.040043 -2.374911 1.996806 7.579468 11.980418 0.000000 0.000000 0.000000 -6.364523 0.812809 -11.669854 -3.627474 0.441742 1.089413 1.347885 -2.969368 12.729855 0.000000 0.000000 0.000000 5.354324 -0.104192 -0.594996 -1.714112 0.818721 -3.888189 -4.201752 4.329692 0.262802 7.844569 -4.189763 -9.846893 0.000000 0.000000 0.000000 -12.758918 -4.294222 -0.006749 -59.919852 -14.743590 0.764873 10.319976 -17.805147 -1.111243 0.000000 0.000000 0.000000 10.140963 -6.427467 -3.392101 68.732134 2.533807 -4.140546 -6.092256 32.080919 -0.230072 0.000000 0.000000 0.000000 
-0.015394 0.939548 -0.033083 -1.271982 -2.065474 6.015531 11.317254 -0.199333 -5.993398 1.468893 -0.055827 -2.292836 1.866352 7.399351 12.027537 0.000000 0.000000 0.000000 -6.344641 0.826688 -12.008860 -3.580249 0.500395 1.950528 1.379847 -2.665776 12.197049 0.000000 0.000000 0.000000 5.360844 -0.120136 -0.428141 -1.811228 0.861445 -3.518505 -4.210124 4.306368 0.152059 7.389618 -3.907381 -9.671872 0.000000 0.000000 0.000000 -12.002266 -3.132323 -0.458500 -60.661610 -15.032279 0.902572 11.334154 -20.964681 -1.532096 0.000000 0.000000 0.000000 9.647906 -7.108968 -3.633957 69.920453 0.510846 -5.387954 -5.546504 38.016633 -0.078629 0.000000 0.000000 0.000000 
-0.015988 0.939229 -0.033425 -1.415162 -1.450243 5.922367 11.542694 -0.204720 -6.444436 1.515839 -0.101104 -1.386803 1.596361 6.797052 11.107468 0.000000 0.000000 0.000000 -6.589961 0.817104 -12.437075 -3.063176 0.469833 2.363344 1.142100 -3.098788 12.375606 0.000000 0.000000 0.000000 5.302683 -0.152812 -0.042955 -1.804489 0.864263 -3.615206 -4.466811 4.674090 0.534454 7.102838 -3.628191 -9.943781 0.000000 0.000000 0.000000 -10.258902 -2.706734 -0.512661 -61.650837 -15.158706 0.825009 13.386974 -25.636712 -2.447606 0.000000 0.000000 0.000000 8.969263 -8.883478 -4.267992 71.364529 -2.186111 -7.045601 -5.898611 45.947493 -0.055979 0.000000 0.000000 0.000000 
-0.016652 0.939118 -0.033660 -1.534915 -0.366936 6.067177 11.446260 -0.242229 -6.987721 1.816374 -0.139027 -1.139057 1.213044 6.239446 10.967759 0.000000 0.000000 0.000000 -6.476752 0.807227 -12.512428 -3.243713 0.522548 2.751086 0.871430 -3.365626 12.130595 0.000000 0.000000 0.000000 5.076578 -0.169603 0.166712 -1.693764 0.826955 -3.762331 -4.841409 4.268854 1.075517 6.451749 -3.167034 -10.040423 0.000000 0.000000 0.000000 -9.723030 0.018865 -1.604855 -62.402443 -14.232741 0.208524 17.619487 -34.882248 -4.851021 0.000000 0.000000 0.000000 8.231169 -11.013665 -5.082546 72.499946 -5.447192 -9.164615 -5.092166 55.995236 0.480084 0.000000 0.000000 0.000000 
-0.017278 0.939076 -0.033865 -1.794566 0.352335 6.228143 11.667358 -0.255801 -7.684464 2.026657 -0.194677 -0.407947 0.853453 5.511366 10.281518 0.000000 0.000000 0.000000 -6.383533 0.815682 -12.847915 -2.891995 0.486969 2.862467 0.407087 -4.173938 12.189759 0.000000 0.000000 0.000000 5.069949 -0.212315 0.610359 -1.850854 0.907788 -4.670972 -5.562982 5.127395 2.148614 6.842671 -3.311719 -10.279740 0.000000 0.000000 0.000000 -7.900073 1.573464 -2.039401 -63.657534 -13.498567 -0.560237 23.438122 -45.714775 -9.370500 0.000000 0.000000 0.000000 7.448109 -14.053075 -6.203071 73.593304 -9.007871 -11.285464 -1.091895 67.571919 3.761591 0.000000 0.000000 0.000000 
-0.017552 0.939036 -0.034285 -1.989769 1.249573 6.646445 11.472000 -0.295394 -8.686180 2.304345 -0.244509 0.050250 0.753133 5.480417 10.422675 0.000000 0.000000 0.000000 -6.210308 0.825799 -13.074753 -2.983919 0.509516 2.995286 0.178624 -4.304933 11.654478 0.000000 0.000000 0.000000 5.001576 -0.218791 0.602797 -2.424246 1.156742 -4.727257 -6.023458 4.768297 2.585406 6.193743 -2.895488 -10.110097 0.000000 0.000000 0.000000 -6.724708 4.385972 -2.907821 -65.969895 -14.093933 -0.431071 35.143196 -55.002534 -18.104847 0.000000 0.000000 0.000000 5.937127 -16.466772 -6.969006 75.750984 -12.189087 -13.589763 9.930630 78.617187 13.616921 0.000000 0.000000 0.000000 
-0.017302 0.939415 -0.034942 -2.135932 1.261977 6.661074 11.279626 -0.300551 -9.250759 2.317412 -0.303262 1.097665 0.803302 5.281574 9.508272 0.000000 0.000000 0.000000 -6.122206 0.839776 -13.224660 -2.725033 0.480163 3.070713 -0.060778 -4.705441 11.453391 0.000000 0.000000 0.000000 4.838692 -0.289288 1.508921 -2.783405 1.307341 -5.497608 -6.496131 5.763506 3.308103 6.263684 -2.867651 -10.148857 0.000000 0.000000 0.000000 -5.571856 5.102826 -2.981875 -68.331143 -14.943204 -0.303920 55.365934 -60.723330 -33.798566 0.000000 0.000000 0.000000 4.491774 -18.148599 -7.391917 77.653035 -14.654037 -15.242289 82.033583 86.608541 85.587033 0.000000 0.000000 0.000000 
-0.016765 0.940216 -0.035701 -2.323322 1.172828 6.891918 11.279505 -0.296390 -10.223754 2.328731 -0.344816 1.827114 0.781879 5.467011 10.240245 0.000000 0.000000 0.000000 -5.801112 0.883931 -13.494616 -2.949000 0.516683 3.187130 0.190729 -4.079107 11.011725 0.000000 0.000000 0.000000 4.689228 -0.337705 2.132549 -3.323851 1.528113 -5.308122 -6.986939 6.066570 3.183769 5.466261 -2.401047 -9.576042 0.000000 0.000000 0.000000 -4.040840 7.031055 -3.319071 -71.757297 -16.631685 0.514053 74.467898 -63.435545 -49.958127 0.000000 0.000000 0.000000 2.892179 -18.511193 -7.245144 79.149043 -15.442482 -15.844253 150.674181 82.730000 154.533969 0.000000 0.000000 0.000000 
-0.016272 0.941437 -0.036301 -2.391391 0.778907 6.838497 10.916950 -0.299674 -10.628121 2.512781 -0.408166 2.530553 0.865705 5.456111 9.867046 0.000000 0.000000 0.000000 -5.506674 0.937868 -13.941649 -2.854317 0.506841 3.241898 -0.053445 -4.678887 11.197263 0.000000 0.000000 0.000000 4.404407 -0.415396 3.301867 -4.024392 1.809804 -5.535678 -7.292123 6.572237 3.588318 4.919402 -2.155151 -8.747434 0.000000 0.000000 0.000000 -2.843283 7.181987 -3.072959 -73.737101 -18.244274 1.373719 88.332940 -62.205179 -60.306238 0.000000 0.000000 0.000000 1.762154 -18.429370 -7.021233 79.153326 -15.632527 -15.784941 160.401540 79.100880 164.649881 0.000000 0.000000 0.000000 
-0.016068 0.941960 -0.036993 -2.705801 0.792224 6.996983 11.114099 -0.289069 -11.130137 2.499101 -0.412352 2.639958 0.917431 5.738779 10.502159 0.000000 0.000000 0.000000 -4.865784 1.016278 -14.342631 -2.800671 0.507943 3.373153 -0.190497 -4.906567 11.065658 0.000000 0.000000 0.000000 4.170070 -0.472263 4.174722 -4.480662 2.000620 -5.287107 -7.743853 6.560285 4.202328 4.318140 -1.746610 -8.684453 0.000000 0.000000 0.000000 -1.387549 7.601377 -2.839948 -75.784262 -20.703627 2.954460 93.568486 -60.842198 -63.313538 0.000000 0.000000 0.000000 0.656151 -17.974139 -6.665481 78.728235 -15.776157 -15.714524 160.148034 77.693836 163.977582 0.000000 0.000000 0.000000 
-0.016497 0.942297 -0.037887 -3.004467 0.963962 7.282753 11.528315 -0.270118 -11.849664 2.478817 -0.418901 2.816437 0.781040 5.623484 10.828507 0.000000 0.000000 0.000000 -4.506347 1.089072 -15.033586 -2.464473 0.491251 3.844027 -0.654636 -5.854098 11.254231 0.000000 0.000000 0.000000 3.796013 -0.546040 5.423861 -5.017118 2.223003 -5.181772 -8.155690 6.138898 4.545697 3.557512 -1.096166 -9.560088 0.000000 0.000000 0.000000 0.152383 7.758571 -2.497806 -77.180166 -23.258068 4.842419 94.633465 -59.356209 -62.411376 0.000000 0.000000 0.000000 -0.429922 -17.857285 -6.430306 77.835466 -16.520432 -16.038324 151.228573 77.414546 152.702588 0.000000 0.000000 0.000000 
-0.017218 0.942828 -0.039469 -3.496260 1.584376 7.536898 12.307560 -0.234460 -12.828054 2.111484 -0.399097 3.361519 0.549734 5.357711 11.013304 0.000000 0.000000 0.000000 -3.889720 1.184151 -15.786873 -2.164239 0.477004 4.319445 -0.874388 -6.279576 11.528665 0.000000 0.000000 0.000000 3.461540 -0.615441 6.643943 -5.107449 2.257658 -5.427362 -8.177886 5.320243 5.750345 2.978811 -0.598722 -10.542161 0.000000 0.000000 0.000000 0.555958 7.215665 -2.249140 -77.999814 -26.532484 7.501049 92.125470 -57.025088 -57.347998 0.000000 0.000000 0.000000 -0.517957 -17.443276 -6.261988 76.684393 -17.032414 -16.388429 141.981115 77.953254 141.762528 0.000000 0.000000 0.000000 
-0.017759 0.942712 -0.041637 -3.824219 2.386952 8.153225 12.604899 -0.239251 -14.460148 2.249234 -0.470715 4.340020 0.278666 4.948542 10.885847 0.000000 0.000000 0.000000 -3.387982 1.321736 -17.304199 -2.001204 0.506695 5.310945 -1.457543 -7.372208 11.795811 0.000000 0.000000 0.000000 2.884148 -0.688907 8.283967 -5.211413 2.303021 -5.332052 -8.201010 4.276080 6.035791 2.061142 0.102071 -11.625869 0.000000 0.000000 0.000000 0.900051 6.882639 -2.081028 -78.990839 -29.386907 10.121506 91.660990 -54.613999 -54.155760 0.000000 0.000000 0.000000 -1.122300 -17.400930 -6.121402 75.860185 -17.060661 -16.370334 135.924723 79.063838 135.157961 0.000000 0.000000 0.000000 
